# xmcd
#
# Track frame offsets:
#	150
#	14863
#	24320
#	36024
#	49190
#	60611
#	69319
#	85948
#	100142
#	111748
#	123824
#
# Disc length: 1899 seconds
#
# Revision: 0
# Processed by: cddbd v1.5.2PL0 Copyright (c) Steve Scherf et al.
# Submitted via: EasyCDDAExtractor 15.3.0.1
#
DISCID=9107690b
DTITLE=Homer and Jethro - Songs My Mother Never Sang
DYEAR=2009
DGENRE=Comedy
TTITLE0=Among My Souvenirs
TTITLE1=Sweet Violets
TTITLE2=Come Here Little Wifey!
TTITLE3=The Tattooed Lady
TTITLE4=Please Help Me, I'm Falling
TTITLE5=How Come There's No Dog Day?
TTITLE6=I Love Your Pizza
TTITLE7=Don't Jump Off The Roof Dad
TTITLE8=Will You Love Me When
TTITLE9=She Was Bitten On The Udder By An Adder
TTITLE10=In the Shade Of The Old Apple Tree
EXTD=
EXTT0=
EXTT1=
EXTT2=
EXTT3=
EXTT4=
EXTT5=
EXTT6=
EXTT7=
EXTT8=
EXTT9=
EXTT10=
PLAYORDER=
